<svg width="81" height="46" viewBox="0 0 81 46" fill="none" xmlns="http://www.w3.org/2000/svg">
<g clip-path="url(#clip0_28_19)">
<path d="M20.9816 40.7481C17.4275 40.3438 14.3475 39.1501 11.7419 37.1666C9.17876 35.1484 7.29135 32.6188 6.0797 29.577C4.9105 26.5009 4.51442 23.2577 4.8914 19.8472C5.33265 15.8554 6.70329 12.5579 9.00329 9.95465C11.3076 7.31267 14.0868 5.45064 17.3409 4.36857C20.6332 3.29087 23.9035 2.93663 27.152 3.3059C30.7826 3.71861 33.8774 4.95335 36.4362 7.01014C38.9994 9.02814 40.8506 11.5343 41.9903 14.5285C43.1678 17.5271 43.5812 20.6153 43.2298 23.7932C42.8401 27.32 41.5652 30.4518 39.4051 33.1886C37.245 35.9256 34.523 37.9706 31.239 39.3241C27.9932 40.6817 24.574 41.1563 20.9816 40.7481ZM23.1294 39.6972C25.5753 39.9752 27.8434 39.5855 29.9339 38.5281C32.0243 37.4708 33.7586 35.7843 35.137 33.4688C36.5575 31.1187 37.4565 28.2385 37.8334 24.828C38.2318 21.2237 37.9567 17.9354 37.0083 14.9629C36.0982 11.9947 34.5652 9.58364 32.4096 7.72968C30.2922 5.88006 27.7048 4.78147 24.6474 4.43391C20.6729 3.9821 17.4252 5.00603 14.9044 7.5057C12.388 9.96661 10.8641 13.5999 10.3329 18.4056C9.92597 22.0873 10.1881 25.492 11.1194 28.6195C12.0507 31.747 13.5496 34.2916 15.6159 36.2531C17.7204 38.2191 20.2249 39.3671 23.1294 39.6972Z" fill="#3A2A3A"/>
<path d="M56.9406 16.8884C57.147 17.2203 57.3764 17.5435 57.6281 17.8565L57.087 18.3993L65.4663 29.4802C68.1583 33.1459 70.2155 35.7397 71.6383 37.2606C73.0611 38.7423 74.1574 39.6393 74.9263 39.9513C75.7339 40.2632 76.8494 40.4194 78.2722 40.4194C78.3875 40.4194 78.4453 40.5363 78.4453 40.7702C78.4453 41.0041 78.3875 41.1213 78.2722 41.1213H71.8114L70.0235 41.1797C69.4849 41.1797 69.062 41.1016 68.7543 40.9458C68.4851 40.7896 68.1579 40.4971 67.7737 40.0682C67.4274 39.639 66.8313 38.8398 65.9854 37.6697C65.6394 37.2408 65.1778 36.6363 64.6009 35.8566C64.024 35.0377 63.2359 33.9651 62.2361 32.6392L53.8127 21.6808L52.141 23.3562V36.383C52.141 37.592 52.2375 38.4692 52.4295 39.0154C52.6604 39.5612 53.0834 39.9318 53.6986 40.1265C54.3525 40.3215 55.3907 40.4194 56.8135 40.4194C56.9288 40.4194 56.9867 40.5363 56.9867 40.7702C56.9867 41.0041 56.9288 41.1213 56.8135 41.1213C55.583 41.1213 54.6215 41.1016 53.9292 41.0627L49.8337 41.0041L45.7959 41.0627C45.0653 41.1016 44.0651 41.1213 42.796 41.1213C42.7193 41.121 42.681 41.0041 42.681 40.7702C42.681 40.5363 42.7193 40.4194 42.796 40.4194C44.1804 40.4194 45.1998 40.3215 45.8537 40.1265C46.5073 39.9315 46.9497 39.5612 47.1803 39.0154C47.4493 38.4303 47.5838 37.5528 47.5838 36.383V23.5587L52.141 20.4009V21.7935L56.9406 16.8884ZM56.8135 4.56055C56.8905 4.56055 56.9288 4.67749 56.9288 4.91138C56.9288 5.14536 56.8905 5.2625 56.8135 5.26253C55.4677 5.26253 54.4678 5.37941 53.8139 5.61336C53.1603 5.84732 52.7179 6.25688 52.4873 6.84176C52.2566 7.38773 52.141 8.24596 52.141 9.41591V17.9602L47.5838 21.045V9.29887C47.5838 8.12901 47.4688 7.27102 47.2378 6.72501C47.0072 6.17907 46.5651 5.80835 45.9112 5.61336C45.2959 5.37938 44.2958 5.26253 42.9116 5.26253C42.7963 5.2625 42.7385 5.14533 42.7385 4.91138C42.7385 4.67752 42.7963 4.56058 42.9116 4.56055L45.7959 4.61908C47.488 4.69706 48.8338 4.73612 49.8337 4.73612C50.9105 4.73612 52.295 4.69706 53.9867 4.61908L56.8135 4.56055Z" fill="#3A2A3A"/>
<path d="M40.212 38.0634L25.0763 18.4648L40.212 27.8741C40.648 27.8301 49.3162 21.8765 80.5 0L40.212 38.0634Z" fill="#C6A43F"/>
</g>
<defs>
<clipPath id="clip0_28_19">
<rect width="80.5" height="46" fill="white"/>
</clipPath>
</defs>
</svg>
